HIERARCHY
ROOT hip
{
	OFFSET 0.000000 0.000000 0.000000 
	CHANNELS 6 Xposition Yposition Zposition Xrotation Zrotation Yrotation
	JOINT abdomen
	{
		OFFSET 0.000000 3.402643 0.000000 
		CHANNELS 3 Xrotation Zrotation Yrotation
		JOINT chest
		{
			OFFSET 0.000000 8.438565 -0.680529 
			CHANNELS 3 Xrotation Zrotation Yrotation
			JOINT neck
			{
				OFFSET 0.000000 10.207942 -0.272212 
				CHANNELS 3 Xrotation Zrotation Yrotation
				JOINT head
				{
					OFFSET 0.000000 3.130431 0.000000 
					CHANNELS 3 Xrotation Zrotation Yrotation
					End Site
					{
						OFFSET 0.000000 3.130435 0.000000 
					}
				}
			}
			JOINT lCollar
			{
				OFFSET 3.470700 6.669187 -0.816635 
				CHANNELS 3 Yrotation Zrotation Xrotation
				JOINT lShldr
				{
					OFFSET 3.198488 0.000000 0.000000 
					CHANNELS 3 Zrotation Yrotation Xrotation
					JOINT lForeArm
					{
						OFFSET 10.139888 0.000000 0.000000 
						CHANNELS 3 Yrotation Zrotation Xrotation
						JOINT lHand
						{
							OFFSET 8.370511 0.000000 0.000000 
							CHANNELS 3 Zrotation Yrotation Xrotation
							End Site
							{
								OFFSET 4.083176 0.000000 0.000000 
							}
						}
					}
				}
			}
			JOINT rCollar
			{
				OFFSET -3.470700 6.669187 -0.816635 
				CHANNELS 3 Yrotation Zrotation Xrotation
				JOINT rShldr
				{
					OFFSET -3.198488 0.000000 0.000000 
					CHANNELS 3 Zrotation Yrotation Xrotation
					JOINT rForeArm
					{
						OFFSET -10.139888 0.000000 0.000000 
						CHANNELS 3 Yrotation Zrotation Xrotation
						JOINT rHand
						{
							OFFSET -8.370511 0.000000 0.000000 
							CHANNELS 3 Zrotation Yrotation Xrotation
							End Site
							{
								OFFSET -4.083176 0.000000 0.000000 
							}
						}
					}
				}
			}
		}
	}
	JOINT lThigh
	{
		OFFSET 5.308129 -1.633274 1.361059 
		CHANNELS 3 Xrotation Zrotation Yrotation
		JOINT lShin
		{
			OFFSET -2.041588 -20.007561 0.000000 
			CHANNELS 3 Xrotation Zrotation Yrotation
			JOINT lFoot
			{
				OFFSET 0.000000 -19.190928 -1.224953 
				CHANNELS 3 Xrotation Yrotation Zrotation
				End Site
				{
					OFFSET 0.000000 -2.449906 4.627600 
				}
			}
		}
	}
	JOINT rThigh
	{
		OFFSET -5.308129 -1.633274 1.361059 
		CHANNELS 3 Xrotation Zrotation Yrotation
		JOINT rShin
		{
			OFFSET 2.041588 -20.007561 0.000000 
			CHANNELS 3 Xrotation Zrotation Yrotation
			JOINT rFoot
			{
				OFFSET 0.000000 -19.190928 -1.224953 
				CHANNELS 3 Xrotation Yrotation Zrotation
				End Site
				{
					OFFSET 0.000000 -2.449906 4.627600 
				}
			}
		}
	}
}
MOTION
Frames: 13
Frame Time: 0.033333
22.461548 37.967411 46.145409 -10.538011 2.563504 -5.486432 -25.458981 0.000000 -0.009766 61.030949 -10.849251 31.206844 -4.426117 3.952243 -15.106002 -15.417969 -20.836132 -7.941069 -9.706654 1.490829 13.896314 -77.438164 -53.896469 44.806839 2.985785 10.264430 -72.474854 -10.417925 34.293621 -3.383212 30.892883 -5.372223 25.000000 -27.813919 105.174500 -37.863350 6.403762 1.745601 -125.876190 -13.318740 -24.745558 2.520973 -48.925133 -12.587788 -10.341099 69.174103 5.622883 -15.918244 -12.660225 1.423522 -8.723952 18.586332 -15.494972 -23.693171 68.401756 -2.229434 0.720039 -21.494942 -6.320368 25.500454 
22.190918 37.750561 46.097805 -10.238058 2.921563 -4.072166 -25.458981 0.000000 -0.009766 61.587692 -11.099126 31.328381 -3.080187 4.147047 -15.724002 -16.740692 -20.905905 -8.337676 -9.700294 1.275792 14.196922 -77.918854 -53.876446 44.678146 2.853412 12.732467 -70.807953 -10.651200 34.633255 -3.484381 31.081312 -5.471701 25.000000 -26.633621 105.095711 -36.308701 6.506622 1.853343 -124.125191 -13.078581 -23.596569 2.340688 -50.318100 -13.064888 -10.481714 70.209694 5.369112 -16.825199 -12.420234 1.374937 -8.603078 18.597256 -14.880298 -24.621964 69.094620 -2.043899 0.436526 -22.084009 -6.447798 25.407906 
22.070332 37.656990 46.083569 -10.016963 3.317898 -3.280596 -25.458981 0.000000 -0.009766 62.113964 -11.261271 31.077904 -2.464465 4.165806 -15.991442 -17.299753 -20.807302 -8.579656 -9.395266 1.163268 14.144357 -79.019470 -53.791477 45.028709 2.593106 14.727705 -68.715469 -10.367746 34.186844 -3.357605 30.955538 -5.505585 25.000000 -26.201475 105.127953 -35.288967 6.597494 1.907286 -122.743240 -13.147501 -22.506403 2.245965 -51.091110 -13.680394 -10.311972 70.621193 5.340305 -16.885628 -11.960511 1.329546 -8.607000 18.617247 -14.764094 -25.454683 69.360390 -2.122889 0.053602 -22.342485 -6.501758 25.416546 
21.982861 37.608982 46.081127 -9.744651 3.474652 -2.929813 -25.458981 0.000000 -0.009766 62.212254 -11.222349 30.950764 -2.415552 3.934191 -15.999196 -16.718040 -20.878103 -8.733334 -9.289678 1.340973 14.126147 -78.781364 -53.892376 45.057724 1.886200 14.745304 -68.114471 -9.356493 33.255657 -2.977340 30.560438 -5.762922 25.000000 -26.288765 105.240005 -35.331711 6.643106 1.963789 -121.125099 -12.506598 -22.270229 2.086396 -51.804909 -14.032708 -10.446239 71.130051 5.233423 -16.518221 -11.512300 1.303304 -8.883536 18.273750 -14.323369 -25.530396 69.575844 -2.376101 -0.225633 -22.326881 -6.488408 25.389627 
21.948849 37.608982 46.070141 -9.344224 3.546186 -2.701756 -25.458981 0.000000 -0.009766 62.178841 -10.951559 30.716040 -2.238151 3.697748 -15.965058 -17.277023 -20.779610 -8.698629 -9.204025 1.759744 13.918326 -78.474838 -53.963760 45.444633 0.821622 14.006691 -69.181107 -8.116329 33.024078 -2.626404 30.341118 -6.648470 25.000000 -24.142952 105.666115 -33.688450 6.372062 1.982171 -120.380173 -12.134618 -21.820532 1.976594 -52.487587 -14.256685 -10.369175 71.381004 5.251752 -16.308800 -10.899841 1.220607 -8.674121 17.726482 -14.089178 -25.174463 69.733810 -2.337506 -0.475937 -22.232349 -6.490491 25.475887 
21.973057 37.626068 46.091702 -9.139149 3.586817 -3.134707 -25.458981 0.000000 -0.009766 62.083874 -10.695991 30.309633 -3.020370 3.324434 -15.726659 -16.262381 -20.601768 -8.750702 -9.437797 1.670318 14.059256 -78.368721 -54.194180 45.083542 0.862890 14.433909 -69.644737 -7.637844 33.725945 -2.566407 30.272635 -6.480655 25.000000 -24.375942 105.616127 -33.933216 6.239949 2.000491 -120.305084 -12.511958 -22.679047 2.139972 -52.948444 -14.296790 -10.203826 71.795807 5.185192 -15.447724 -10.230556 1.159205 -8.712994 17.289207 -14.167692 -24.522293 69.819679 -2.297842 -0.630694 -22.337563 -6.539176 25.561844 
22.076717 37.704590 46.185276 -9.159208 3.634826 -3.837039 -25.458981 0.000000 -0.009766 61.970367 -10.016566 29.681038 -2.239641 3.104534 -15.199234 -16.430183 -20.070654 -8.446087 -9.526403 1.393288 14.358511 -77.709343 -54.147526 45.086567 0.775402 14.247754 -70.912277 -7.485861 33.930729 -2.542524 30.525751 -6.316607 25.000000 -24.520128 105.251701 -34.739799 6.471291 2.035185 -119.985794 -12.464330 -22.922470 2.147279 -53.022160 -14.363354 -10.098382 72.152298 5.046852 -14.424222 -9.498047 1.212595 -9.524789 17.348673 -14.226553 -23.741129 69.290771 -2.405326 -0.967699 -22.225693 -6.613388 25.975084 
22.259876 37.844135 46.305294 -9.128978 3.548348 -4.788073 -25.458981 0.000000 -0.009766 61.893227 -9.303722 29.079872 -2.100320 3.254195 -14.546233 -16.982494 -20.419039 -7.542498 -9.556850 1.101751 14.150332 -76.931717 -54.474045 44.254963 1.195449 12.464758 -71.524216 -6.944315 33.181660 -2.333309 30.359890 -6.158747 25.000000 -25.632656 105.475105 -36.358402 6.540248 2.151685 -119.064079 -12.704798 -22.981800 2.199790 -52.955223 -14.285495 -9.987000 72.314034 4.873003 -13.422139 -8.674453 1.173595 -10.137789 17.601349 -14.450700 -22.773335 68.222176 -2.493745 -0.732705 -22.013153 -6.599632 26.155464 
22.549223 38.021519 46.410259 -9.002943 3.665345 -6.185217 -25.458981 0.000000 -0.009766 61.802620 -8.759939 28.488211 -1.866906 2.464702 -13.993861 -17.511072 -20.360647 -7.109472 -9.802105 0.480804 14.543697 -76.030479 -54.383186 43.417263 0.790921 12.546951 -72.625145 -6.710596 33.367062 -2.290613 30.216078 -6.131070 25.000000 -26.951033 105.689476 -37.302750 6.516444 2.189204 -118.663513 -12.220487 -22.901907 2.104172 -52.870689 -14.355636 -9.607725 72.212509 4.630087 -11.949338 -7.633711 1.091976 -10.257116 17.296535 -15.065113 -20.736967 67.470917 -2.649860 -0.193754 -21.943281 -6.694806 26.657833 
22.856386 38.222904 46.591301 -8.877516 3.840298 -7.708697 -25.458981 0.000000 -0.009766 61.256996 -8.393711 27.944458 -2.276418 1.145358 -13.030125 -16.582909 -19.646973 -6.833193 -10.261594 -0.019266 14.618519 -74.567665 -54.581310 42.172031 0.014722 11.063051 -72.924492 -5.102245 32.501751 -1.801172 30.510746 -5.538775 25.000000 -30.045357 105.188957 -40.136547 6.217170 2.128055 -119.056099 -12.190406 -23.476454 2.151549 -52.590508 -14.362334 -8.956502 71.997620 4.539968 -10.409074 -6.944324 1.024718 -10.184551 17.558241 -15.742170 -18.875429 65.926949 -2.835272 0.576816 -22.027401 -6.790115 26.917446 
23.209728 38.467819 46.730034 -8.615073 4.016814 -9.396984 -25.458981 0.000000 -0.009766 60.725689 -7.631510 26.884949 -2.781873 0.041235 -11.536963 -16.614620 -19.838823 -5.524950 -10.645855 -1.099114 14.541044 -71.925003 -55.344456 40.245300 0.111908 9.176950 -72.686668 -3.965145 31.312723 -1.449533 30.388786 -5.388316 25.000000 -31.260269 105.044754 -41.181763 6.019556 2.098677 -119.151054 -11.694104 -23.348312 2.030406 -52.439896 -14.091779 -8.206965 71.449059 4.490919 -9.127812 -6.111305 0.917983 -10.072024 17.765022 -16.743273 -17.891552 64.097130 -3.069046 1.582093 -22.234673 -6.768376 26.656092 
23.596306 38.713146 46.847610 -8.393250 4.328321 -11.155229 -25.458981 0.000000 -0.009766 60.330677 -6.860694 25.087238 -3.365958 -1.584450 -9.734632 -17.380917 -19.450680 -4.102317 -11.133103 -1.374373 13.724157 -68.488632 -56.308212 37.968521 -0.430378 6.383109 -75.193718 -2.348469 30.669834 -1.018783 30.538845 -5.007740 25.000000 -32.233505 104.286102 -42.027897 5.726409 2.090317 -118.554329 -11.512294 -23.464502 2.007571 -52.066628 -13.768308 -7.261391 70.594978 4.345557 -8.066417 -5.349883 0.816070 -9.692631 17.999016 -17.876055 -17.154058 62.086918 -3.411973 2.263028 -22.750341 -6.835450 26.405384 
23.983171 38.957657 47.009529 -8.363872 4.328647 -13.428410 -25.458981 0.000000 -0.009766 59.679352 -6.244432 22.996107 -4.284170 -2.940998 -7.486725 -17.044291 -18.280367 -2.622451 -12.033369 -1.588594 13.936427 -64.737732 -58.252388 34.683815 -0.466366 5.232767 -75.797585 -0.995097 30.553680 -0.689433 30.432642 -4.276618 25.000000 -32.803101 103.120705 -42.525429 5.588886 2.094110 -117.703407 -10.845899 -23.784094 1.894967 -51.238110 -12.909603 -6.267021 69.778877 4.188403 -6.804407 -5.259667 0.793885 -9.423638 18.400833 -18.530359 -16.251902 59.779018 -4.045334 2.256895 -23.422390 -6.920288 25.999565 
